<?xml version="1.0" encoding="UTF-8" standalone="no"?>
<svg
   xmlns:dc="http://purl.org/dc/elements/1.1/"
   xmlns:cc="http://creativecommons.org/ns#"
   xmlns:rdf="http://www.w3.org/1999/02/22-rdf-syntax-ns#"
   xmlns:svg="http://www.w3.org/2000/svg"
   xmlns="http://www.w3.org/2000/svg"
   viewBox="0 0 505.90668 186.93333"
   height="186.93333"
   width="505.90668"
   xml:space="preserve"
   id="svg2"
   version="1.1"><metadata
     id="metadata8"><rdf:RDF><cc:Work
         rdf:about=""><dc:format>image/svg+xml</dc:format><dc:type
           rdf:resource="http://purl.org/dc/dcmitype/StillImage" /></cc:Work></rdf:RDF></metadata><defs
     id="defs6" /><g
     transform="matrix(1.3333333,0,0,-1.3333333,0,186.93333)"
     id="g10"><g
       transform="scale(0.1)"
       id="g12"><path
         id="path14"
         style="fill:#231f20;fill-opacity:1;fill-rule:nonzero;stroke:none"
         d="m 3765.69,1119.1 h 28.58 V 381.961 h -28.58 z m 0,282.86 h 28.58 v -140.02 h -28.58 z M 3317.51,25.7617 H 0.40625 V 0 H 3317.51 Z m 186.72,747.6093 c 0,45.758 -2.81,89.031 -8.53,130.027 -5.76,40.926 -15.96,76.618 -30.72,107.142 -14.82,30.46 -34.82,54.75 -60.04,72.87 -25.23,18.04 -56.89,27.1 -94.94,27.1 -68.57,0 -118.15,-29.52 -148.61,-88.56 -30.45,-59.044 -45.76,-143.38 -45.76,-252.872 0,-64.738 4.36,-119.961 12.89,-165.719 8.58,-45.691 21.2,-83.058 37.9,-112.105 16.65,-29.121 36.64,-50.258 59.99,-63.606 23.28,-13.355 49.23,-19.996 77.82,-19.996 28.57,0 55.01,5.438 79.3,16.438 24.28,10.937 45.22,30.258 62.87,57.832 17.57,27.641 31.67,65.016 42.14,112.176 10.45,47.168 15.69,106.882 15.69,179.273 z M 3317.12,25.7617 c 58.09,0 103.79,17.8477 137.13,53.5391 33.35,35.7582 49.98,95.9492 49.98,180.7502 v 290.437 h -2.81 c -10.54,-54.273 -32.68,-95.941 -66.43,-124.988 -33.88,-29.051 -77.89,-43.539 -132.17,-43.539 -31.4,0 -60.25,6.898 -86.41,20.656 -26.23,13.821 -49.05,35.766 -68.57,65.754 -19.6,29.988 -34.56,69.309 -45.02,117.883 -10.47,48.57 -15.7,107.144 -15.7,175.711 0,66.621 5.43,123.785 16.43,171.422 10.94,47.566 26.18,86.413 45.7,116.403 19.52,29.99 43.07,51.94 70.71,65.75 27.65,13.76 58.58,20.67 92.86,20.67 32.34,0 59.78,-5.44 82.12,-16.37 22.4,-11 41,-24.56 55.75,-40.73 14.77,-16.23 26.18,-33.34 34.28,-51.46 8.06,-18.12 13.56,-34.279 16.45,-48.572 h 2.81 V 1119.1 h 28.58 V 258.641 c 0,-34.352 -3.55,-67.161 -10.73,-98.621 -7.11,-31.411 -18.78,-59.051 -34.96,-82.8598 C 3470.89,53.3984 3448.75,34.5508 3420.69,20.7305 3392.59,6.98047 3358.04,0 3317.12,0 m -837.19,1119.1 h 28.59 V 986.254 h 2.88 c 2.89,16.176 9.26,33.076 19.25,50.656 10.07,17.64 23.35,33.82 40.06,48.64 16.64,14.76 35.89,26.84 57.83,36.43 21.88,9.47 45.69,14.23 71.39,14.23 35.29,0 65.01,-5.44 89.3,-16.37 24.35,-11 43.81,-26.43 58.57,-46.5 14.76,-19.99 25.5,-43.81 32.13,-71.39 6.72,-27.637 10.07,-57.626 10.07,-90.032 V 381.961 h -28.58 v 527.144 c 0,40.922 -4.29,74.266 -12.88,99.955 -8.59,25.77 -20.26,46.24 -34.96,61.46 -14.82,15.23 -31.93,25.7 -51.46,31.41 -19.52,5.76 -40.25,8.58 -62.19,8.58 -16.17,0 -35.22,-3.56 -57.1,-10.73 -21.94,-7.12 -42.87,-20.47 -62.86,-39.99 -19.99,-19.52 -36.9,-45.96 -50.72,-79.306 -13.83,-33.343 -20.73,-76.152 -20.73,-128.546 V 381.961 h -28.59 z M 2231.36,819.129 c -11.41,-13.352 -30.93,-24.82 -58.58,-34.352 -27.64,-9.527 -72.38,-20.464 -134.24,-32.808 -59.99,-11.473 -101.92,-31.465 -125.74,-60.047 -23.82,-28.578 -35.69,-68.57 -35.69,-119.961 0,-62.863 15.7,-108.824 47.17,-137.871 31.39,-29.055 69.97,-43.61 115.66,-43.61 19.05,0 39.79,4.559 62.13,13.614 22.41,8.996 43.07,23.754 62.19,44.281 19.06,20.465 34.96,47.367 47.84,80.715 12.88,33.344 19.26,74.269 19.26,122.848 z M 1848.53,574.781 c 0,60.043 15.69,105.27 47.16,135.723 31.4,30.465 74.28,50.926 128.55,61.457 24.76,4.766 50.93,10.203 78.57,16.437 27.64,6.172 51.46,13.082 71.45,20.665 20.94,6.71 35.7,18.589 44.28,35.761 8.59,17.106 12.82,46.629 12.82,88.563 0,32.343 -2.08,57.164 -6.38,74.273 -4.29,17.17 -11.67,32.88 -22.14,47.16 -12.41,16.17 -29.51,29.53 -51.46,39.99 -21.94,10.46 -46.22,15.7 -72.86,15.7 -42.88,0 -75.95,-7.65 -99.3,-22.81 -23.35,-15.3 -40.46,-33.35 -51.39,-54.35 -11,-20.92 -17.38,-42.401 -19.32,-64.272 -1.88,-21.937 -2.82,-39.984 -2.82,-54.277 h -28.58 v 24.289 c 0,23.816 3.76,47.637 11.41,71.45 7.58,23.75 19.52,44.96 35.76,63.54 16.16,18.58 36.83,33.61 62.12,45.02 25.23,11.4 55.96,17.11 92.12,17.11 23.81,0 46.9,-3.56 69.31,-10.67 22.34,-7.18 41.66,-17.85 57.83,-32.13 16.17,-14.3 29.32,-32.68 39.32,-55.02 10,-22.41 14.96,-48.843 14.96,-79.304 V 474.813 c 0,-27.649 4.02,-45.958 12.14,-55.016 8.12,-9.059 18.32,-13.086 30.73,-12.145 3.82,0 8.32,0.203 13.55,0.739 5.24,0.468 10.27,1.136 15.03,2.144 v -25.754 c -9.52,-1.89 -16.23,-2.82 -19.99,-2.82 h -14.3 c -19.05,0 -34.75,5.699 -47.16,17.098 -12.34,11.476 -18.58,37.648 -18.58,78.57 v 28.578 h -2.82 c -16.24,-42.871 -40.73,-77.152 -73.6,-102.848 -32.87,-25.699 -72.59,-38.578 -119.3,-38.578 -59.97,0 -106.2,18.59 -138.54,55.754 -32.4,37.098 -48.57,88.563 -48.57,154.246 z m -219.99,827.179 h 28.57 V 381.961 h -28.57 z m -257.1,0 h 28.57 V 381.961 h -28.57 z M 1117.08,819.129 c -11.4,-13.352 -30.92,-24.82 -58.56,-34.352 -27.58,-9.527 -72.399,-20.464 -134.258,-32.808 -59.981,-11.473 -101.914,-31.465 -125.731,-60.047 -23.82,-28.578 -35.687,-68.57 -35.687,-119.961 0,-62.863 15.691,-108.824 47.16,-137.871 31.402,-29.055 69.976,-43.61 115.664,-43.61 19.059,0 39.793,4.559 62.137,13.614 22.405,8.996 43.135,23.754 62.195,44.281 19.05,20.465 34.95,47.367 47.83,80.715 12.88,33.344 19.25,74.269 19.25,122.848 z M 734.258,574.781 c 0,60.043 15.699,105.27 47.168,135.723 31.394,30.465 74.265,50.926 128.551,61.457 24.753,4.766 50.921,10.203 78.558,16.437 27.645,6.172 51.465,13.082 71.455,20.665 20.93,6.71 35.69,18.589 44.28,35.761 8.59,17.106 12.81,46.629 12.81,88.563 0,32.343 -2.08,57.164 -6.37,74.273 -4.29,17.17 -11.67,32.88 -22.14,47.16 -12.41,16.17 -29.52,29.53 -51.46,39.99 -21.93,10.46 -46.219,15.7 -72.864,15.7 -42.867,0 -75.945,-7.65 -99.289,-22.81 -23.352,-15.3 -40.461,-33.35 -51.394,-54.35 -11.004,-20.92 -17.375,-42.401 -19.325,-64.272 -1.875,-21.937 -2.816,-39.984 -2.816,-54.277 h -28.578 v 24.289 c 0,23.816 3.82,47.637 11.398,71.45 7.59,23.75 19.528,44.96 35.762,63.54 16.168,18.58 36.832,33.61 62.129,45.02 25.226,11.4 55.953,17.11 92.113,17.11 23.82,0 46.904,-3.56 69.304,-10.67 22.35,-7.18 41.67,-17.85 57.84,-32.13 16.17,-14.3 29.32,-32.68 39.32,-55.02 9.99,-22.41 14.96,-48.843 14.96,-79.304 V 474.813 c 0,-27.649 4.02,-45.958 12.14,-55.016 8.12,-9.059 18.32,-13.086 30.73,-12.145 3.83,0 8.32,0.203 13.55,0.739 5.24,0.468 10.27,1.136 15.03,2.144 v -25.754 c -9.53,-1.89 -16.23,-2.82 -20,-2.82 h -14.28 c -19.06,0 -34.75,5.699 -47.17,17.098 -12.34,11.476 -18.59,37.648 -18.59,78.57 v 28.578 h -2.81 c -16.24,-42.871 -40.73,-77.152 -73.6,-102.848 -32.81,-25.699 -72.596,-38.578 -119.291,-38.578 -59.984,0 -106.203,18.59 -138.543,55.754 -32.41,37.098 -48.578,88.563 -48.578,154.246 z M 514.262,1401.96 h 28.582 V 381.961 h -28.582 z m -257.16,0 H 285.68 V 381.961 H 257.102 Z M 0,1119.1 H 28.5781 V 381.961 H 0 Z m 0,282.86 H 28.5781 V 1261.94 H 0 v 140.02" /></g></g></svg>